<?xml version="1.0" encoding="UTF-8" standalone="no"?>
<!-- Created with Inkscape (http://www.inkscape.org/) -->

<svg
   width="210mm"
   height="297mm"
   viewBox="0 0 210 297"
   version="1.1"
   id="svg5"
   xml:space="preserve"
   inkscape:version="1.2 (dc2aedaf03, 2022-05-15)"
   sodipodi:docname="albumplaceholder.svg"
   inkscape:export-filename="albumplaceholder.png"
   inkscape:export-xdpi="233.59302"
   inkscape:export-ydpi="233.59302"
   xmlns:inkscape="http://www.inkscape.org/namespaces/inkscape"
   xmlns:sodipodi="http://sodipodi.sourceforge.net/DTD/sodipodi-0.dtd"
   xmlns="http://www.w3.org/2000/svg"
   xmlns:svg="http://www.w3.org/2000/svg"><sodipodi:namedview
     id="namedview7"
     pagecolor="#ffffff"
     bordercolor="#000000"
     borderopacity="0.25"
     inkscape:showpageshadow="2"
     inkscape:pageopacity="0.0"
     inkscape:pagecheckerboard="0"
     inkscape:deskcolor="#d1d1d1"
     inkscape:document-units="mm"
     showgrid="false"
     inkscape:zoom="1.829812"
     inkscape:cx="301.39708"
     inkscape:cy="475.45868"
     inkscape:window-width="2560"
     inkscape:window-height="1387"
     inkscape:window-x="-8"
     inkscape:window-y="-8"
     inkscape:window-maximized="1"
     inkscape:current-layer="layer1" /><defs
     id="defs2">



							
								
						
							
								
					
							
								
			
							
								
					
								
									
						
							
								
					
							
								
					
							
								
					
							
								
					
							
								
					
							
								
					
							
								
					
							
								
					
							
								
					
							
								
					
							
								
					
							
								
					
							
								
					
							
								
				
							
								
			
							
								
			
							
								
				
							
								
				
							
								
					</defs><g
     inkscape:label="Capa 1"
     inkscape:groupmode="layer"
     id="layer1"><rect
       style="fill:#282c34;stroke-width:0.264583;fill-opacity:1"
       id="rect165"
       width="108.73613"
       height="108.73613"
       x="48.005844"
       y="52.632912" /><circle
       style="fill:#ffffff;fill-opacity:1;stroke-width:0.264583"
       id="path2509"
       cx="102.37391"
       cy="107.00098"
       r="43.667965" /><ellipse
       style="fill:#000000;stroke-width:0.350751"
       id="path975"
       cx="102.37391"
       cy="107.00098"
       rx="0.29091474"
       ry="0.041559249" /><path
       id="path233"
       style="fill:#282c34;fill-opacity:1;stroke-width:0.265782"
       d="m 102.2797,86.594345 -9.132671,15.430975 -3.275048,-2.078502 -9.762328,16.627522 -1.889549,-2.07799 -7.558205,12.28157 17.698446,-0.0628 -0.440722,0.69249 h 46.166297 l -8.3135,-13.73038 -1.82675,2.20465 -2.16674,-3.79987 a 4.2198813,4.2828641 0 0 1 -3.62754,2.09927 4.2198813,4.2828641 0 0 1 -4.21981,-4.28316 4.2198813,4.2828641 0 0 1 4.16376,-4.2764 l -2.58931,-4.54115 -2.58204,2.58255 -1.35123,-2.16622 -1.86101,0.52844 v 10.7341 a 4.2198813,4.2828641 0 0 1 0.0628,0.72882 4.2198813,4.2828641 0 0 1 -4.21983,4.28317 4.2198813,4.2828641 0 0 1 -4.21982,-4.28317 4.2198813,4.2828641 0 0 1 4.21982,-4.28263 4.2198813,4.2828641 0 0 1 2.20465,0.63176 V 97.679358 l 1.21575,-0.34885 z m 6.69545,10.736173 2.59761,4.166362 9.22401,-2.620452 v 7.686422 a 4.2198813,4.2828641 0 0 0 -2.64538,-0.94738 4.2198813,4.2828641 0 0 0 -0.0561,0.006 l 3.68358,6.46029 a 4.2198813,4.2828641 0 0 0 0.5923,-2.18388 4.2198813,4.2828641 0 0 0 -0.12562,-1.0377 V 93.522868 Z" /><path
       style="fill:#ff0000;fill-opacity:1;stroke-width:0.264583"
       d="M 83.509756,122.79779 121.23806,91.204164"
       id="path4931" /><path
       d="m 66.865262,89.363037 c 4.093087,-8.126041 10.92763,-14.633076 19.2889,-18.309781"
       id="path23"
       style="fill:none;fill-opacity:1;stroke:#282c34;stroke-width:0.945726;stroke-linecap:round;stroke-linejoin:round;stroke-opacity:1" /><path
       d="M 69.45847,89.015864 C 73.162405,82.335243 78.868825,76.919646 85.765011,73.574988"
       id="path31"
       style="fill:none;fill-opacity:1;stroke:#282c34;stroke-width:0.945726;stroke-linecap:round;stroke-linejoin:round;stroke-opacity:1" /><path
       d="M 71.093738,90.07251 C 74.69216,83.529925 80.311975,78.255771 87.109456,75.091127"
       id="path41"
       style="fill:none;fill-opacity:1;stroke:#282c34;stroke-width:0.945726;stroke-linecap:round;stroke-linejoin:round;stroke-opacity:1" /><path
       d="M 72.436292,91.707778 C 75.59602,85.625822 80.578217,80.645894 86.659038,77.489948"
       id="path53"
       style="fill:none;fill-opacity:1;stroke:#282c34;stroke-width:0.945726;stroke-linecap:round;stroke-linejoin:round;stroke-opacity:1" /><path
       d="M 74.475461,91.880229 C 77.615523,86.188559 82.47481,81.578118 88.350655,78.745897"
       id="path61"
       style="fill:none;fill-opacity:1;stroke:#282c34;stroke-width:0.945726;stroke-linecap:round;stroke-linejoin:round;stroke-opacity:1" /><path
       d="m 75.470463,94.376244 c 2.56371,-5.370213 6.716171,-9.836567 11.846238,-12.795479"
       id="path65"
       style="fill:none;fill-opacity:1;stroke:#282c34;stroke-width:0.945726;stroke-linecap:round;stroke-linejoin:round;stroke-opacity:1" /></g></svg>
