<?xml version="1.0" encoding="UTF-8" standalone="no"?>
<!-- Generator: Adobe Illustrator 18.1.1, SVG Export Plug-In . SVG Version: 6.00 Build 0)  -->

<svg
   version="1.1"
   id="Layer_1"
   x="0px"
   y="0px"
   viewBox="0 0 480 192"
   enable-background="new 0 0 480 192"
   xml:space="preserve"
   sodipodi:docname="ghlogo.svg"
   inkscape:version="1.2 (dc2aedaf03, 2022-05-15)"
   xmlns:inkscape="http://www.inkscape.org/namespaces/inkscape"
   xmlns:sodipodi="http://sodipodi.sourceforge.net/DTD/sodipodi-0.dtd"
   xmlns="http://www.w3.org/2000/svg"
   xmlns:svg="http://www.w3.org/2000/svg"><defs
   id="defs54" /><sodipodi:namedview
   id="namedview52"
   pagecolor="#ffffff"
   bordercolor="#000000"
   borderopacity="0.25"
   inkscape:showpageshadow="2"
   inkscape:pageopacity="0.0"
   inkscape:pagecheckerboard="0"
   inkscape:deskcolor="#d1d1d1"
   showgrid="false"
   inkscape:zoom="2.5208333"
   inkscape:cx="331.23967"
   inkscape:cy="136.46281"
   inkscape:window-width="1920"
   inkscape:window-height="1009"
   inkscape:window-x="-8"
   inkscape:window-y="-8"
   inkscape:window-maximized="1"
   inkscape:current-layer="Layer_1" />
<rect
   x="3"
   y="3"
   width="474"
   height="186"
   id="rect29" />
<path
   fill="#D2D2D2"
   d="M6,6h468v180H6V6z M0,192h480V0H0V192z"
   id="path31" />




<g
   id="g49">
	<g
   id="g47">
		<path
   fill="#FFFFFF"
   d="M145.7,134.6c-9,5.1-19.1,7.7-30.6,7.7c-8.6,0-16.3-1.9-23-5.7c-6.7-3.8-11.8-9.1-15.4-16    c-3.6-6.9-5.4-14.7-5.4-23.4c0-9.2,2-17.4,5.9-24.6c3.9-7.2,9.5-12.8,16.7-16.9c7.2-4.1,15.4-6.1,24.7-6.1c4.6,0,9.2,0.4,13.7,1.3    c4.5,0.9,8.3,2,11.1,3.3v13.5c-6.8-4.5-15.5-6.8-25.9-6.8c-6.3,0-11.9,1.5-16.9,4.5c-5,3-8.9,7.2-11.7,12.6    c-2.8,5.4-4.2,11.5-4.2,18.2c0,10.8,2.8,19.2,8.4,25.4c5.6,6.2,13.3,9.3,23.2,9.3c6.3,0,11.8-1.3,16.6-3.8v-23.1H114V93h31.8    V134.6z"
   id="path41" />
		<path
   fill="#FFFFFF"
   d="M216.9,112.2h-44.4c0.2,6.5,2.1,11.4,5.6,14.9s8.1,5.2,13.9,5.2c7.6,0,14.3-2.2,20.1-6.6v10.9    c-2.5,1.8-5.7,3.1-9.6,4.2c-3.9,1-7.9,1.6-12.1,1.6c-9.7,0-17.2-2.9-22.6-8.7c-5.3-5.8-8-13.9-8-24.4c0-6.5,1.3-12.3,3.9-17.5    c2.6-5.2,6.2-9.2,10.9-12.2c4.6-2.9,9.8-4.4,15.5-4.4c8.3,0,14.8,2.7,19.6,8.1c4.8,5.4,7.2,12.9,7.2,22.6V112.2z M204.5,102.4    c0-5.5-1.3-9.8-3.9-12.7c-2.6-2.9-6.2-4.4-10.8-4.4c-4.3,0-7.9,1.6-11.1,4.7c-3.1,3.1-5.2,7.3-6,12.5H204.5z"
   id="path43" />
		<path
   fill="#FFFFFF"
   d="M263,140.1c-1.1,0.7-2.7,1.2-4.8,1.6c-2.1,0.4-3.9,0.6-5.5,0.6c-11.8,0-17.8-6.5-17.8-19.6V86.9h-10.8    V76.8h10.8V61.6l12.3-3.9v19.1H263v10.2h-15.8v33.6c0,4.3,0.7,7.2,2.1,8.9c1.4,1.7,3.8,2.6,7.3,2.6c2.4,0,4.5-0.7,6.5-2V140.1z"
   id="path45" />
	</g>
</g>
<g
   style="fill:#ffffff"
   id="g346"
   transform="matrix(0.13025764,0,0,0.13025764,308.23483,30.953368)"><path
     fill-rule="evenodd"
     clip-rule="evenodd"
     d="M 8,0 C 3.58,0 0,3.58 0,8 c 0,3.54 2.29,6.53 5.47,7.59 0.4,0.07 0.55,-0.17 0.55,-0.38 0,-0.19 -0.01,-0.82 -0.01,-1.49 C 4,14.09 3.48,13.23 3.32,12.78 3.23,12.55 2.84,11.84 2.5,11.65 2.22,11.5 1.82,11.13 2.49,11.12 3.12,11.11 3.57,11.7 3.72,11.94 4.44,13.15 5.59,12.81 6.05,12.6 6.12,12.08 6.33,11.73 6.56,11.53 4.78,11.33 2.92,10.64 2.92,7.58 2.92,6.71 3.23,5.99 3.74,5.43 3.66,5.23 3.38,4.41 3.82,3.31 c 0,0 0.67,-0.21 2.2,0.82 0.64,-0.18 1.32,-0.27 2,-0.27 0.68,0 1.36,0.09 2,0.27 1.53,-1.04 2.2,-0.82 2.2,-0.82 0.44,1.1 0.16,1.92 0.08,2.12 0.51,0.56 0.82,1.27 0.82,2.15 0,3.07 -1.87,3.75 -3.65,3.95 0.29,0.25 0.54,0.73 0.54,1.48 0,1.07 -0.01,1.93 -0.01,2.2 0,0.21 0.15,0.46 0.55,0.38 C 13.71,14.53 16,11.53 16,8 16,3.58 12.42,0 8,0 Z"
     transform="scale(64)"
     fill="#1b1f23"
     id="path337"
     style="fill:#ffffff" /></g></svg>
