<?xml version="1.0" encoding="UTF-8" standalone="no"?>
<!-- Created with Inkscape (http://www.inkscape.org/) -->

<svg
   version="1.1"
   id="svg9"
   width="180.58594"
   height="117.46484"
   viewBox="0 0 180.58594 117.46484"
   sodipodi:docname="Soniclair.svg"
   inkscape:version="1.2 (dc2aedaf03, 2022-05-15)"
   xmlns:inkscape="http://www.inkscape.org/namespaces/inkscape"
   xmlns:sodipodi="http://sodipodi.sourceforge.net/DTD/sodipodi-0.dtd"
   xmlns="http://www.w3.org/2000/svg"
   xmlns:svg="http://www.w3.org/2000/svg">
  <defs
     id="defs13" />
  <sodipodi:namedview
     id="namedview11"
     pagecolor="#ffffff"
     bordercolor="#000000"
     borderopacity="0.25"
     inkscape:showpageshadow="2"
     inkscape:pageopacity="0.0"
     inkscape:pagecheckerboard="0"
     inkscape:deskcolor="#d1d1d1"
     showgrid="false"
     inkscape:zoom="2.1099476"
     inkscape:cx="-24.645161"
     inkscape:cy="78.200993"
     inkscape:window-width="1920"
     inkscape:window-height="1009"
     inkscape:window-x="-8"
     inkscape:window-y="-8"
     inkscape:window-maximized="1"
     inkscape:current-layer="g15" />
  <g
     inkscape:groupmode="layer"
     inkscape:label="Image"
     id="g15"
     transform="translate(-49.707032,-36.76758)">
    <path
       id="path233-7"
       style="fill:#f2f2f2;fill-opacity:1;stroke-width:0.726852"
       d="m 138.04102,39.599611 c -7.97526,13.47461 -15.95052,26.949219 -23.92578,40.423828 -2.98699,-1.895826 -5.97386,-3.791823 -8.96094,-5.6875 C 96.365179,89.307643 87.574774,104.27859 78.785157,119.25 c -1.709618,-1.87957 -3.419205,-3.75917 -5.128907,-5.63867 -7.985187,12.97005 -15.965668,25.943 -23.949218,38.91406 16.111972,-0.0591 32.223959,-0.11431 48.335937,-0.17187 -0.399088,0.6263 -0.798177,1.2526 -1.197265,1.8789 44.482426,0 88.964846,0 133.447266,0 -8.67717,-14.33002 -17.35413,-28.66017 -26.03125,-42.99023 -1.64818,1.9886 -3.29569,3.97776 -4.94336,5.9668 -1.32161,-2.31706 -2.64323,-4.63412 -3.96484,-6.95118 1.32786,-2.76284 1.69562,-5.99138 1.00976,-8.98242 0,-14.787758 0,-29.575518 0,-44.363279 -12.46395,3.577652 -24.92842,7.153521 -37.39257,10.730469 -6.41807,-10.291606 -12.83523,-20.583774 -19.25391,-30.875 -0.55859,0.94401 -1.11719,1.888021 -1.67578,2.832031 z m 24.03125,40.576172 c -1.32876,0.377007 -2.6575,0.754082 -3.98633,1.130859 0.0117,10.374602 -0.0235,20.752388 0.0176,31.124998 0.77001,4.01718 -1.2641,8.39673 -4.90099,10.30574 -3.51209,1.98607 -8.24869,1.27831 -11.0708,-1.5801 -2.84275,-2.69759 -3.72221,-7.17491 -2.18042,-10.76803 1.35684,-3.37165 4.76858,-5.81375 8.41719,-5.90467 2.05807,-0.12128 4.05424,0.60268 5.79549,1.65389 0.86135,0.45645 1.72271,0.9129 2.58406,1.36934 0,-11.689449 0,-23.378902 0,-35.068355 0.67465,-0.388534 0.77865,0.7055 1.16468,1.066817 1.38652,2.22317 2.77303,4.446341 4.15954,6.669511 z m 26.33008,11.535156 c -1.34307,-0.527247 -2.7502,-0.933924 -4.19727,-1.005859 -2.07031,-3.63151 -4.14062,-7.263021 -6.21094,-10.894531 3.4694,-0.985677 6.93881,-1.971354 10.40821,-2.957031 0,4.952473 0,9.904947 0,14.857421 z m -19.16602,-7.607421 c -0.31901,-0.511068 -0.63802,-1.022136 -0.95703,-1.533204 1.15885,-0.329427 2.31771,-0.658854 3.47656,-0.988281 -0.83984,0.840495 -1.67969,1.68099 -2.51953,2.521485 z m 21.5,26.132812 c -2.17154,2.94132 -6.13249,4.46019 -9.6971,3.55167 -3.7061,-0.80124 -6.65978,-4.05461 -7.25203,-7.77962 -0.66551,-3.65232 0.9758,-7.59379 4.05102,-9.681568 1.21446,-0.823089 2.61592,-1.370397 4.06999,-1.570951 2.9427,5.160159 5.88541,10.320309 8.82812,15.480469 z" />
    <ellipse
       style="fill:#000000"
       id="path975"
       cx="154.15074"
       cy="125.95099"
       rx="0.82940447"
       ry="0.11848635" />
    <ellipse
       style="fill:#ececec;fill-opacity:1"
       id="path3335"
       cx="133.29715"
       cy="99.765511"
       rx="13.388958"
       ry="9.7158813" />
    <path
       id="path233"
       style="fill:#454f5a;fill-opacity:1;stroke-width:0.726852"
       d="m 139.74234,40.363053 -24.97562,42.200025 -8.95647,-5.684211 -26.69762,45.472273 -5.16746,-5.68279 -20.66987,33.58711 48.40099,-0.17178 -1.20527,1.89379 H 226.7247 l -22.73543,-37.54931 -4.99569,6.02919 -5.92555,-10.39172 a 11.54036,11.712603 0 0 1 -9.9204,5.741 11.54036,11.712603 0 0 1 -11.54019,-11.7134 11.54036,11.712603 0 0 1 11.38687,-11.694933 l -7.08112,-12.41895 -7.06127,7.06267 -3.6953,-5.92413 -5.08939,1.44519 v 29.355173 a 11.54036,11.712603 0 0 1 0.17178,1.99317 11.54036,11.712603 0 0 1 -11.5402,11.71339 11.54036,11.712603 0 0 1 -11.5402,-11.71339 11.54036,11.712603 0 0 1 11.5402,-11.71198 11.54036,11.712603 0 0 1 6.02918,1.7277 V 70.677907 l 3.32478,-0.954 z m 18.31043,29.360864 7.10385,11.393971 25.22546,-7.1663 v 21.02051 a 11.54036,11.712603 0 0 0 -7.23445,-2.59083 11.54036,11.712603 0 0 0 -0.15332,0.017 l 10.07372,17.667332 a 11.54036,11.712603 0 0 0 1.6198,-5.9724 11.54036,11.712603 0 0 0 -0.34354,-2.83784 V 59.310897 Z" />
  </g>
</svg>
